<?xml version="1.0" encoding="UTF-8" standalone="no"?>
<svg
   xmlns:figma="http://www.figma.com/figma/ns"
   xmlns:dc="http://purl.org/dc/elements/1.1/"
   xmlns:cc="http://creativecommons.org/ns#"
   xmlns:rdf="http://www.w3.org/1999/02/22-rdf-syntax-ns#"
   xmlns:svg="http://www.w3.org/2000/svg"
   xmlns="http://www.w3.org/2000/svg"
   xmlns:xlink="http://www.w3.org/1999/xlink"
   xmlns:sodipodi="http://sodipodi.sourceforge.net/DTD/sodipodi-0.dtd"
   xmlns:inkscape="http://www.inkscape.org/namespaces/inkscape"
   inkscape:version="1.0 (4035a4fb49, 2020-05-01)"
   sodipodi:docname="logo.svg"
   id="svg25"
   version="1.1"
   viewBox="0 0 109 24">
  <metadata
     id="metadata29">
    <rdf:RDF>
      <cc:Work
         rdf:about="">
        <dc:format>image/svg+xml</dc:format>
        <dc:type
           rdf:resource="http://purl.org/dc/dcmitype/StillImage" />
      </cc:Work>
    </rdf:RDF>
  </metadata>
  <sodipodi:namedview
     inkscape:current-layer="g14"
     inkscape:window-maximized="1"
     inkscape:window-y="-9"
     inkscape:window-x="-9"
     inkscape:cy="9.2214405"
     inkscape:cx="51.26699"
     inkscape:zoom="11.082569"
     showgrid="false"
     id="namedview27"
     inkscape:window-height="1001"
     inkscape:window-width="1920"
     inkscape:pageshadow="2"
     inkscape:pageopacity="0"
     guidetolerance="10"
     gridtolerance="10"
     objecttolerance="10"
     borderopacity="1"
     bordercolor="#666666"
     pagecolor="#ffffff" />
  <title
     id="title2">Logo</title>
  <g
     id="g16"
     figma:type="canvas"
     transform="translate(-1470)">
    <g
       id="g14"
       fill="#ff4400"
       transform="translate(1461.5182,-2.8874172)"
       figma:type="vector"
       style="mix-blend-mode:normal">
      <use
         transform="translate(24.272351,5.955298)"
         height="100%"
         width="100%"
         y="0"
         x="0"
         id="use12"
         style="mix-blend-mode:normal;fill:#ff4400;fill-opacity:1"
         xlink:href="#f" />
      <text
         id="text33"
         y="26.627655"
         x="6.3372936"
         style="font-style:normal;font-variant:normal;font-weight:normal;font-stretch:normal;font-size:26.6667px;line-height:0;font-family:Bahnschrift;-inkscape-font-specification:Bahnschrift;letter-spacing:0px;fill:#ff4400;fill-opacity:1;stroke:none;stroke-width:0.66035"
         xml:space="preserve"><tspan
           style="font-size:26.6667px;fill:#4d4d4d;stroke-width:0.66035"
           y="26.627655"
           x="6.3372936"
           id="tspan31"
           sodipodi:role="line"><tspan
             dx="0"
             id="tspan57"
             style="font-size:26.6667px;letter-spacing:-0.82px;fill:#4d4d4d">Data</tspan><tspan
             id="tspan1006"
             style="stroke:#000000;stroke-opacity:0.967611">Ո<tspan
   id="tspan1008"
   style="font-size:32px;stroke:#000000;stroke-opacity:0.967611">׀׀</tspan>Ո</tspan></tspan></text>
      <text
         id="text51"
         y="22.648178"
         x="49.717716"
         style="font-style:normal;font-weight:normal;font-size:24px;line-height:1.25;font-family:sans-serif;fill:#000000;fill-opacity:1;stroke:none"
         xml:space="preserve"><tspan
           style="font-size:24px"
           y="22.648178"
           x="49.717716"
           id="tspan49"
           sodipodi:role="line" /></text>
      <circle
         r="0.045070779"
         cy="19.850992"
         cx="93.028984"
         style="fill:#ff4400;stroke:#000000"
         id="path151" />
      <path
         id="path155"
         d="M 58.560442,21.565397 76.426336,16.061258 91.76574,22.918874 114.41392,9.2938742"
         style="fill:#ff4400;stroke:#000000;stroke-width:1px;stroke-linecap:butt;stroke-linejoin:miter;stroke-opacity:1;fill-opacity:1;opacity:0" />
      <path
         d="m 62.67781,21.729307 c -0.316458,0.184769 -0.636471,0.363578 -0.949374,0.554307 -0.09145,0.05574 0.19036,-0.09824 0.284615,-0.149104 0.13766,-0.07428 0.273909,-0.15115 0.411097,-0.226301 0.597247,-0.327173 1.19566,-0.649324 1.800986,-0.961359 1.63435,-0.806532 3.308975,-1.52935 5.006692,-2.191023 0.97553,-0.351718 1.979672,-0.701826 3.023737,-0.771976 0.501163,-0.03367 0.609056,0.0038 1.097525,0.06664 0.739947,0.15971 1.45409,0.423972 2.118176,0.787987 0.432443,0.237041 0.62053,0.380156 1.020798,0.654818 0.886007,0.625138 1.281967,1.472215 1.625395,2.464438 0.162686,0.423002 0.227858,0.903966 0.522313,1.264956 0.192313,0.235767 0.283841,0.269668 0.537584,0.441947 0.682548,0.367548 1.443726,0.421078 2.202662,0.30023 0.189204,-0.03013 0.374145,-0.0827 0.561218,-0.124045 0.860824,-0.22253 1.658774,-0.622457 2.421026,-1.072658 1.697358,-1.002495 1.217642,-0.678266 2.255291,-1.434405 0.876713,-0.686028 1.65241,-1.487067 2.505591,-2.199981 0.827842,-0.543687 -0.385766,0.189454 -0.556915,0.317364 -0.06581,0.04918 0.156042,-0.05962 0.238096,-0.06366 0.08036,-0.0039 0.164014,0.0086 0.237999,0.04026 0.212895,0.091 0.346013,0.269627 0.499382,0.431387 0.419779,0.596247 0.651541,1.289819 0.888725,1.971677 0.266267,0.765463 0.105054,0.31142 0.372986,1.055647 0.05697,0.15061 0.0971,0.308713 0.170898,0.451829 0.205736,0.39898 0.545576,0.757167 0.996277,0.865101 0.529402,0.126781 0.762325,0.0083 1.31139,-0.0995 1.004926,-0.32157 1.964496,-0.759728 2.877141,-1.288024 0.690886,-0.399927 1.378236,-0.806547 2.05305,-1.233035 0.65414,-0.413422 1.54925,-1.096762 2.164849,-1.553828 1.909,-1.496584 3.80507,-3.010918 5.67376,-4.557674 0.75039,-0.620714 1.51904,-1.21732 2.29779,-1.801705 0,0 -1.10762,0.4409 -1.10762,0.4409 v 0 c -0.76908,0.584402 -1.52827,1.180666 -2.2721,1.797153 -1.8529,1.536995 -3.72453,3.052369 -5.624315,4.531058 -3.339705,2.454291 1.050615,-0.753143 -2.185098,1.551971 -0.03963,0.02823 -0.06123,0.07864 -0.103244,0.103179 -0.888619,0.519084 -1.822316,0.951901 -2.800986,1.272163 -0.505352,0.109972 -0.730949,0.223232 -1.224165,0.128367 -0.429576,-0.08262 -0.748513,-0.400561 -0.948854,-0.773698 -0.07547,-0.140558 -0.119663,-0.295784 -0.179495,-0.443676 -0.384688,-1.041943 -0.681814,-2.1278 -1.260356,-3.085554 -0.211399,-0.239687 -0.442597,-0.564734 -0.79619,-0.595154 -0.08836,-0.0076 -0.18299,0.0044 -0.262409,0.04389 -1.106362,0.549791 -1.035462,0.515439 -1.649957,0.975017 -0.826252,0.715803 -1.587417,1.505794 -2.458146,2.170413 -0.190399,0.136955 -0.429542,0.223938 -0.571199,0.410866 -0.0912,0.120342 0.531574,-0.283321 0.40838,-0.196013 -0.201212,0.142599 -0.427048,0.246987 -0.644492,0.363346 -0.552832,0.295832 -1.122787,0.554788 -1.730302,0.71762 -0.18142,0.04372 -0.360532,0.09847 -0.544262,0.131148 -0.567228,0.100891 -1.251944,0.105925 -1.799971,-0.09229 -0.113595,-0.04109 -0.21945,-0.101043 -0.329174,-0.151564 -0.238416,-0.157202 -0.322131,-0.185913 -0.50297,-0.403092 -0.289147,-0.347254 -0.359628,-0.819628 -0.527955,-1.22597 -0.365437,-0.985964 -0.791915,-1.905134 -1.688709,-2.519266 -0.992034,-0.667804 -1.977946,-1.249395 -3.164909,-1.494984 -0.495427,-0.07166 -0.620378,-0.115168 -1.13072,-0.0828 -1.066561,0.06765 -2.094592,0.428457 -3.090747,0.785967 -1.688106,0.651072 -3.35239,1.363611 -4.9802,2.154355 -1.26863,0.641704 -2.518725,1.321261 -3.748195,2.034467 0,0 1.2476,-0.488152 1.2476,-0.488152 z"
         id="path980"
         style="opacity:0;fill:#ff4400;fill-opacity:1;stroke:#ff4400;stroke-opacity:1" />
      <circle
         r="0.045070779"
         cy="-11.278975"
         cx="88.697853"
         style="fill:#ff4400;stroke:#ff4400"
         id="path982" />
      <circle
         r="0.045070779"
         cy="-12.903146"
         cx="-2.346015"
         style="fill:#ff4400;stroke:#ff4400"
         id="path986" />
      <path
         d="m 58.678842,19.783749 c 0.678894,-0.124304 1.376262,-0.191577 2.068575,-0.163343 0.2048,0.0084 0.408571,0.03199 0.612856,0.04799 1.08435,0.126676 2.129986,0.48771 3.077305,0.996918 0.201158,0.108127 0.392354,0.231874 0.588531,0.347811 0.926662,0.557734 1.675199,1.320888 2.524992,1.968036 0.688863,0.426488 1.483617,0.700474 2.303459,0.795478 0.512718,0.05941 0.813115,0.03962 1.325414,0.03325 0.972445,-0.04546 1.855067,-0.40269 2.690872,-0.849419 1.782871,-0.952925 1.3091,-0.655227 2.387601,-1.401362 1.01813,-0.710849 1.824611,-1.628421 2.670382,-2.504627 0.348401,-0.328852 0.707931,-0.647066 1.126909,-0.895921 0.111472,-0.06621 0.454993,-0.250304 0.34493,-0.182041 -0.864716,0.53631 -1.243582,0.612457 -0.61151,0.443184 0.662398,-0.09281 0.976111,0.160694 1.373156,0.618357 0.430215,0.549564 0.838801,1.113752 1.28958,1.648707 0.485773,0.564261 1.070214,1.040306 1.713498,1.437927 0.626274,0.35661 1.282087,0.665212 1.970117,0.90026 1.014272,0.331723 2.088807,0.315077 3.147477,0.303072 1.158652,-0.05069 2.313362,-0.201271 3.441037,-0.457796 0.752917,-0.171275 0.977587,-0.250103 1.709465,-0.466377 0.281266,-0.105815 0.567067,-0.20154 0.843798,-0.317444 0.478643,-0.200472 1.254892,-0.582323 1.711366,-0.82863 0.651361,-0.351464 1.299718,-0.707987 1.942418,-1.073276 0.508465,-0.288995 1.037509,-0.63825 1.52854,-0.954064 1.3923,-0.922537 2.70108,-1.947582 4.00195,-2.979286 0.94853,-0.773704 1.94516,-1.496944 2.85821,-2.308792 0.40378,-0.359033 0.80274,-0.75276 1.1901,-1.127623 0.75145,-0.789545 1.49463,-1.586659 2.28783,-2.339855 0.0928,-0.08815 0.85394,-0.7881376 0.97736,-0.9017433 0.35024,-0.3253587 0.70278,-0.6481269 1.06248,-0.9642026 0,0 -1.27812,0.494014 -1.27812,0.494014 v 0 c -0.34851,0.3150271 -0.69192,0.63478 -1.03401,0.9559859 -0.14535,0.136024 -0.83912,0.784484 -0.95584,0.897058 -0.78593,0.757949 -1.52342,1.55806 -2.28449,2.337679 -0.43771,0.423264 -0.72508,0.710385 -1.18577,1.117291 -0.91404,0.807341 -1.90328,1.534949 -2.85417,2.302488 -1.30378,1.02939 -2.61948,2.047991 -4.012706,2.969945 -0.240568,0.154212 -0.478699,0.311844 -0.721709,0.462636 -0.26393,0.163774 -0.542103,0.307522 -0.798952,0.480965 -0.08972,0.06058 0.391342,-0.192593 0.295489,-0.14099 -0.814502,0.438483 -1.648608,0.852873 -2.531113,1.158272 -0.277524,0.08431 -0.553015,0.174788 -0.832573,0.252939 -1.391621,0.389033 -2.829096,0.631882 -4.280445,0.691255 -1.033695,0.009 -2.08461,0.01132 -3.078995,-0.292499 -0.680845,-0.228758 -1.327664,-0.532072 -1.951177,-0.876157 -0.637114,-0.383202 -1.210662,-0.848815 -1.690592,-1.400917 -0.447471,-0.537445 -0.85909,-1.099504 -1.283098,-1.653342 -0.31479,-0.378496 -0.646509,-0.716122 -1.193716,-0.757272 -0.0881,-0.0066 -0.176557,0.0079 -0.264836,0.01187 -0.835461,0.174208 -0.263897,0.02893 -1.793056,0.823872 -0.54741,0.284577 -1.006041,0.684498 -1.435824,1.107123 -0.832766,0.872758 -1.641775,1.773816 -2.65645,2.470588 -0.201257,0.135207 -0.469166,0.2105 -0.603771,0.405622 -0.102439,0.148491 0.663357,-0.334941 0.497395,-0.251421 -0.858867,0.432223 -1.641216,0.832527 -2.638736,0.885833 -0.508625,0.01371 -0.799583,0.03765 -1.308815,-0.0139 -0.799433,-0.08093 -1.57888,-0.333216 -2.247645,-0.752914 -0.859584,-0.647327 -1.623149,-1.406839 -2.558313,-1.965124 -0.197718,-0.119206 -0.390378,-0.246176 -0.593153,-0.357618 -0.950681,-0.522479 -2.007476,-0.899192 -3.098887,-1.042792 -0.204802,-0.01994 -0.408931,-0.04744 -0.614406,-0.05983 -0.679968,-0.04099 -1.362496,0.01947 -2.036053,0.103147 0,0 -1.134161,0.811002 -1.134161,0.811002 z"
         id="path988"
         style="opacity:1;fill:#ff4400;fill-opacity:1;stroke:#ff4400;stroke-width:1.03128;stroke-opacity:1" />
      <path
         d="m 110.48413,7.7915362 c 0.80098,-0.040415 1.56506,-0.2948339 2.32424,-0.5323243 0.65905,-0.1744066 1.3383,-0.4540032 2.03298,-0.387072 -2.4e-4,-0.00842 0.10389,0.020897 0.0992,0.059122 -0.002,0.014302 -0.0175,0.022949 -0.0251,0.035155 -0.0189,0.030126 -0.041,0.058824 -0.0544,0.091745 -0.11338,0.2778509 -0.20346,0.5646554 -0.30693,0.8463506 -0.24835,0.6778682 -0.54256,1.3402456 -0.71736,2.0432343 -0.0565,0.2272232 -0.0881,0.4599222 -0.13216,0.6898832 0,0 1.13132,-0.549591 1.13132,-0.549591 v 0 c 0.0435,-0.2246571 0.0738,-0.4522417 0.13038,-0.6739711 0.17989,-0.705593 0.48516,-1.3681277 0.74429,-2.0457003 0.0738,-0.1795421 0.14623,-0.35963 0.22132,-0.5386262 0.0626,-0.149229 0.30316,-0.4987022 0.10694,-0.6684035 -0.0317,-0.027441 -0.0745,-0.038595 -0.11174,-0.057893 -0.71476,-0.1048535 -1.42405,0.1957114 -2.10384,0.3702051 -0.73829,0.2321932 -1.47961,0.4876492 -2.25858,0.5328271 0,0 -1.08054,0.7850592 -1.08054,0.7850592 z"
         id="path990"
         style="opacity:1;fill:#ff4400;fill-opacity:1;stroke:#ff4400;stroke-opacity:1" />
    </g>
  </g>
  <defs
     id="defs23">
    <path
       d="M22.735 23.171c.283.323.053.829-.376.829h-5.907c-.285 0-.556-.121-.745-.333l-9.414-10.526v10.36c0 .276-.224.5-.5.5h-5.293c-.276 0-.5-.224-.5-.5v-23c0-.276.224-.5.5-.5h5.293c.276 0 .5.224.5.5v9.815l9.141-9.99c.19-.207.457-.325.738-.325h5.762c.437 0 .664.521.366.841l-9.851 10.563 10.287 11.767z"
       id="b" />
    <path
       d="M45.991 24c-.199 0-.38-.118-.459-.301l-2.024-4.669h-10.67l-2.024 4.669c-.079.183-.259.301-.459.301h-5.212c-.366 0-.608-.381-.453-.712l10.782-23c.082-.176.259-.288.453-.288h4.358c.194 0 .37.112.453.287l10.815 23c.156.332-.086.713-.452.713h-5.108zm-11.135-9.668h6.635l-3.317-7.694-3.317 7.694z"
       id="c" />
    <path
       d="M55.525 24c-.276 0-.5-.224-.5-.5v-23c0-.276.224-.5.5-.5h5.293c.276 0 .5.224.5.5v18.428h9.759c.276 0 .5.224.5.5v4.072c0 .276-.224.5-.5.5h-15.552z"
       id="d" />
    <path
       d="M75.279.5c0-.276.224-.5.5-.5h9.315c2.667 0 4.959.477 6.874 1.43 1.938.953 3.42 2.338 4.446 4.153 1.026 1.793 1.539 3.926 1.539 6.4 0 2.496-.513 4.652-1.539 6.468-1.003 1.793-2.474 3.166-4.412 4.119-1.915.953-4.218 1.43-6.908 1.43h-9.315c-.276 0-.5-.224-.5-.5v-23zm9.37 18.462c2.371 0 4.138-.579 5.301-1.736 1.163-1.157 1.744-2.905 1.744-5.242 0-2.338-.581-4.074-1.744-5.209-1.163-1.157-2.93-1.736-5.301-1.736h-3.078v13.923h3.078z"
       id="e" />
    <path
       d="M102.913 24c-.276 0-.5-.224-.5-.5v-23c0-.276.224-.5.5-.5h5.293c.276 0 .5.224.5.5v23c0 .276-.224.5-.5.5h-5.293z"
       id="f" />
  </defs>
</svg>
